<svg width="25" height="25" viewBox="0 0 25 25" fill="none" xmlns="http://www.w3.org/2000/svg">
<path d="M0.125171 15.97C0.951332 18.7158 2.70401 21.0902 5.08456 22.6886C7.46511 24.287 10.3263 25.0106 13.1805 24.736C16.0347 24.4614 18.7054 23.2056 20.7375 21.1826C22.7697 19.1597 24.0375 16.4947 24.325 13.6417C24.6125 10.7887 23.9019 7.92436 22.3143 5.53661C20.7266 3.14886 18.3601 1.38547 15.6181 0.546909C12.876 -0.291653 9.92807 -0.153504 7.27646 0.937814C4.62486 2.02913 2.43368 4.0061 1.07628 6.53186L11.9935 12.399L0.125171 15.97Z" fill="url(#paint0_linear_1_1849)"/>
<defs>
<linearGradient id="paint0_linear_1_1849" x1="3.46803" y1="21.4039" x2="22.4424" y2="5.74618" gradientUnits="userSpaceOnUse">
<stop stop-color="#7A87FB"/>
<stop offset="1" stop-color="#FFD49C"/>
</linearGradient>
</defs>
</svg>
