<svg width="259" height="44" viewBox="0 0 259 44" fill="none" xmlns="http://www.w3.org/2000/svg">
<path d="M18.4375 37C9.91935 37 3 30.101 3 21.608V7C11.5181 7 18.4375 13.899 18.4375 22.392V37Z" fill="url(#paint0_linear_1_1526)"/>
<path d="M19.7744 24.561V16.7997C19.7744 11.3902 24.1776 7 29.603 7V14.7613C29.603 20.1707 25.1998 24.561 19.7744 24.561Z" fill="url(#paint1_linear_1_1526)"/>
<path d="M42.0002 36.9995H30.7301C24.6756 36.9995 19.7744 32.1128 19.7744 26.0762H31.0446C37.099 26.0762 42.0002 30.9629 42.0002 36.9995Z" fill="url(#paint2_linear_1_1526)"/>
<path class="logoName" d="M66.7245 21.384C67.3325 21.48 67.8845 21.728 68.3805 22.128C68.8925 22.528 69.2925 23.024 69.5805 23.616C69.8845 24.208 70.0365 24.84 70.0365 25.512C70.0365 26.36 69.8205 27.128 69.3885 27.816C68.9565 28.488 68.3245 29.024 67.4925 29.424C66.6765 29.808 65.7085 30 64.5885 30H58.3485V13.272H64.3485C65.4845 13.272 66.4525 13.464 67.2525 13.848C68.0525 14.216 68.6525 14.72 69.0525 15.36C69.4525 16 69.6525 16.72 69.6525 17.52C69.6525 18.512 69.3805 19.336 68.8365 19.992C68.3085 20.632 67.6045 21.096 66.7245 21.384ZM60.5325 20.496H64.2045C65.2285 20.496 66.0205 20.256 66.5805 19.776C67.1405 19.296 67.4205 18.632 67.4205 17.784C67.4205 16.936 67.1405 16.272 66.5805 15.792C66.0205 15.312 65.2125 15.072 64.1565 15.072H60.5325V20.496ZM64.3965 28.2C65.4845 28.2 66.3325 27.944 66.9405 27.432C67.5485 26.92 67.8525 26.208 67.8525 25.296C67.8525 24.368 67.5325 23.64 66.8925 23.112C66.2525 22.568 65.3965 22.296 64.3245 22.296H60.5325V28.2H64.3965ZM75.2512 18.984C75.6352 18.232 76.1792 17.648 76.8832 17.232C77.6032 16.816 78.4752 16.608 79.4992 16.608V18.864H78.9232C76.4752 18.864 75.2512 20.192 75.2512 22.848V30H73.0672V16.848H75.2512V18.984ZM94.0204 22.92C94.0204 23.336 93.9964 23.776 93.9484 24.24H83.4364C83.5164 25.536 83.9564 26.552 84.7564 27.288C85.5724 28.008 86.5564 28.368 87.7084 28.368C88.6524 28.368 89.4364 28.152 90.0604 27.72C90.7004 27.272 91.1484 26.68 91.4044 25.944H93.7564C93.4044 27.208 92.7004 28.24 91.6444 29.04C90.5884 29.824 89.2764 30.216 87.7084 30.216C86.4604 30.216 85.3404 29.936 84.3484 29.376C83.3724 28.816 82.6044 28.024 82.0444 27C81.4844 25.96 81.2044 24.76 81.2044 23.4C81.2044 22.04 81.4764 20.848 82.0204 19.824C82.5644 18.8 83.3244 18.016 84.3004 17.472C85.2924 16.912 86.4284 16.632 87.7084 16.632C88.9564 16.632 90.0604 16.904 91.0204 17.448C91.9804 17.992 92.7164 18.744 93.2284 19.704C93.7564 20.648 94.0204 21.72 94.0204 22.92ZM91.7644 22.464C91.7644 21.632 91.5804 20.92 91.2124 20.328C90.8444 19.72 90.3404 19.264 89.7004 18.96C89.0764 18.64 88.3804 18.48 87.6124 18.48C86.5084 18.48 85.5644 18.832 84.7804 19.536C84.0124 20.24 83.5724 21.216 83.4604 22.464H91.7644ZM103.311 16.608C104.911 16.608 106.207 17.096 107.199 18.072C108.191 19.032 108.687 20.424 108.687 22.248V30H106.527V22.56C106.527 21.248 106.199 20.248 105.543 19.56C104.887 18.856 103.991 18.504 102.855 18.504C101.703 18.504 100.783 18.864 100.095 19.584C99.4232 20.304 99.0872 21.352 99.0872 22.728V30H96.9032V16.848H99.0872V18.72C99.5192 18.048 100.103 17.528 100.839 17.16C101.591 16.792 102.415 16.608 103.311 16.608ZM111.439 23.376C111.439 22.032 111.711 20.856 112.255 19.848C112.799 18.824 113.543 18.032 114.487 17.472C115.447 16.912 116.519 16.632 117.703 16.632C118.727 16.632 119.679 16.872 120.559 17.352C121.439 17.816 122.111 18.432 122.575 19.2V12.24H124.783V30H122.575V27.528C122.143 28.312 121.503 28.96 120.655 29.472C119.807 29.968 118.815 30.216 117.679 30.216C116.511 30.216 115.447 29.928 114.487 29.352C113.543 28.776 112.799 27.968 112.255 26.928C111.711 25.888 111.439 24.704 111.439 23.376ZM122.575 23.4C122.575 22.408 122.375 21.544 121.975 20.808C121.575 20.072 121.031 19.512 120.343 19.128C119.671 18.728 118.927 18.528 118.111 18.528C117.295 18.528 116.551 18.72 115.879 19.104C115.207 19.488 114.671 20.048 114.271 20.784C113.871 21.52 113.671 22.384 113.671 23.376C113.671 24.384 113.871 25.264 114.271 26.016C114.671 26.752 115.207 27.32 115.879 27.72C116.551 28.104 117.295 28.296 118.111 28.296C118.927 28.296 119.671 28.104 120.343 27.72C121.031 27.32 121.575 26.752 121.975 26.016C122.375 25.264 122.575 24.392 122.575 23.4ZM140.473 22.92C140.473 23.336 140.449 23.776 140.401 24.24H129.889C129.969 25.536 130.409 26.552 131.209 27.288C132.025 28.008 133.009 28.368 134.161 28.368C135.105 28.368 135.889 28.152 136.513 27.72C137.153 27.272 137.601 26.68 137.857 25.944H140.209C139.857 27.208 139.153 28.24 138.097 29.04C137.041 29.824 135.729 30.216 134.161 30.216C132.913 30.216 131.793 29.936 130.801 29.376C129.825 28.816 129.057 28.024 128.497 27C127.937 25.96 127.657 24.76 127.657 23.4C127.657 22.04 127.929 20.848 128.473 19.824C129.017 18.8 129.777 18.016 130.753 17.472C131.745 16.912 132.881 16.632 134.161 16.632C135.409 16.632 136.513 16.904 137.473 17.448C138.433 17.992 139.169 18.744 139.681 19.704C140.209 20.648 140.473 21.72 140.473 22.92ZM138.217 22.464C138.217 21.632 138.033 20.92 137.665 20.328C137.297 19.72 136.793 19.264 136.153 18.96C135.529 18.64 134.833 18.48 134.065 18.48C132.961 18.48 132.017 18.832 131.233 19.536C130.465 20.24 130.025 21.216 129.913 22.464H138.217ZM149.764 16.608C151.364 16.608 152.66 17.096 153.652 18.072C154.644 19.032 155.14 20.424 155.14 22.248V30H152.98V22.56C152.98 21.248 152.652 20.248 151.996 19.56C151.34 18.856 150.444 18.504 149.308 18.504C148.156 18.504 147.236 18.864 146.548 19.584C145.876 20.304 145.54 21.352 145.54 22.728V30H143.356V16.848H145.54V18.72C145.972 18.048 146.556 17.528 147.292 17.16C148.044 16.792 148.868 16.608 149.764 16.608ZM175.402 13.272V15.048H170.842V30H168.658V15.048H164.074V13.272H175.402ZM183.827 30.216C182.595 30.216 181.475 29.936 180.467 29.376C179.475 28.816 178.691 28.024 178.115 27C177.555 25.96 177.275 24.76 177.275 23.4C177.275 22.056 177.563 20.872 178.139 19.848C178.731 18.808 179.531 18.016 180.539 17.472C181.547 16.912 182.675 16.632 183.923 16.632C185.171 16.632 186.299 16.912 187.307 17.472C188.315 18.016 189.107 18.8 189.683 19.824C190.275 20.848 190.571 22.04 190.571 23.4C190.571 24.76 190.267 25.96 189.659 27C189.067 28.024 188.259 28.816 187.235 29.376C186.211 29.936 185.075 30.216 183.827 30.216ZM183.827 28.296C184.611 28.296 185.347 28.112 186.035 27.744C186.723 27.376 187.275 26.824 187.691 26.088C188.123 25.352 188.339 24.456 188.339 23.4C188.339 22.344 188.131 21.448 187.715 20.712C187.299 19.976 186.755 19.432 186.083 19.08C185.411 18.712 184.683 18.528 183.899 18.528C183.099 18.528 182.363 18.712 181.691 19.08C181.035 19.432 180.507 19.976 180.107 20.712C179.707 21.448 179.507 22.344 179.507 23.4C179.507 24.472 179.699 25.376 180.083 26.112C180.483 26.848 181.011 27.4 181.667 27.768C182.323 28.12 183.043 28.296 183.827 28.296ZM198.866 16.632C200.002 16.632 200.994 16.88 201.842 17.376C202.706 17.872 203.346 18.496 203.762 19.248V16.848H205.97V30.288C205.97 31.488 205.714 32.552 205.202 33.48C204.69 34.424 203.954 35.16 202.994 35.688C202.05 36.216 200.946 36.48 199.682 36.48C197.954 36.48 196.514 36.072 195.362 35.256C194.21 34.44 193.53 33.328 193.322 31.92H195.482C195.722 32.72 196.218 33.36 196.97 33.84C197.722 34.336 198.626 34.584 199.682 34.584C200.882 34.584 201.858 34.208 202.61 33.456C203.378 32.704 203.762 31.648 203.762 30.288V27.528C203.33 28.296 202.69 28.936 201.842 29.448C200.994 29.96 200.002 30.216 198.866 30.216C197.698 30.216 196.634 29.928 195.674 29.352C194.73 28.776 193.986 27.968 193.442 26.928C192.898 25.888 192.626 24.704 192.626 23.376C192.626 22.032 192.898 20.856 193.442 19.848C193.986 18.824 194.73 18.032 195.674 17.472C196.634 16.912 197.698 16.632 198.866 16.632ZM203.762 23.4C203.762 22.408 203.562 21.544 203.162 20.808C202.762 20.072 202.218 19.512 201.53 19.128C200.858 18.728 200.114 18.528 199.298 18.528C198.482 18.528 197.738 18.72 197.066 19.104C196.394 19.488 195.858 20.048 195.458 20.784C195.058 21.52 194.858 22.384 194.858 23.376C194.858 24.384 195.058 25.264 195.458 26.016C195.858 26.752 196.394 27.32 197.066 27.72C197.738 28.104 198.482 28.296 199.298 28.296C200.114 28.296 200.858 28.104 201.53 27.72C202.218 27.32 202.762 26.752 203.162 26.016C203.562 25.264 203.762 24.392 203.762 23.4ZM210.789 14.712C210.373 14.712 210.021 14.568 209.733 14.28C209.445 13.992 209.301 13.64 209.301 13.224C209.301 12.808 209.445 12.456 209.733 12.168C210.021 11.88 210.373 11.736 210.789 11.736C211.189 11.736 211.525 11.88 211.797 12.168C212.085 12.456 212.229 12.808 212.229 13.224C212.229 13.64 212.085 13.992 211.797 14.28C211.525 14.568 211.189 14.712 210.789 14.712ZM211.845 16.848V30H209.661V16.848H211.845ZM221.303 30.216C220.071 30.216 218.951 29.936 217.943 29.376C216.951 28.816 216.167 28.024 215.591 27C215.031 25.96 214.751 24.76 214.751 23.4C214.751 22.056 215.039 20.872 215.615 19.848C216.207 18.808 217.007 18.016 218.015 17.472C219.023 16.912 220.151 16.632 221.399 16.632C222.647 16.632 223.775 16.912 224.783 17.472C225.791 18.016 226.583 18.8 227.159 19.824C227.751 20.848 228.047 22.04 228.047 23.4C228.047 24.76 227.743 25.96 227.135 27C226.543 28.024 225.735 28.816 224.711 29.376C223.687 29.936 222.551 30.216 221.303 30.216ZM221.303 28.296C222.087 28.296 222.823 28.112 223.511 27.744C224.199 27.376 224.751 26.824 225.167 26.088C225.599 25.352 225.815 24.456 225.815 23.4C225.815 22.344 225.607 21.448 225.191 20.712C224.775 19.976 224.231 19.432 223.559 19.08C222.887 18.712 222.159 18.528 221.375 18.528C220.575 18.528 219.839 18.712 219.167 19.08C218.511 19.432 217.983 19.976 217.583 20.712C217.183 21.448 216.983 22.344 216.983 23.4C216.983 24.472 217.175 25.376 217.559 26.112C217.959 26.848 218.487 27.4 219.143 27.768C219.799 28.12 220.519 28.296 221.303 28.296ZM238.263 30L233.103 24.192V30H230.919V12.24H233.103V22.68L238.167 16.848H241.215L235.023 23.4L241.239 30H238.263ZM242.454 23.376C242.454 22.032 242.726 20.856 243.27 19.848C243.814 18.824 244.558 18.032 245.502 17.472C246.462 16.912 247.526 16.632 248.694 16.632C249.846 16.632 250.846 16.88 251.694 17.376C252.542 17.872 253.174 18.496 253.59 19.248V16.848H255.798V30H253.59V27.552C253.158 28.32 252.51 28.96 251.646 29.472C250.798 29.968 249.806 30.216 248.67 30.216C247.502 30.216 246.446 29.928 245.502 29.352C244.558 28.776 243.814 27.968 243.27 26.928C242.726 25.888 242.454 24.704 242.454 23.376ZM253.59 23.4C253.59 22.408 253.39 21.544 252.99 20.808C252.59 20.072 252.046 19.512 251.358 19.128C250.686 18.728 249.942 18.528 249.126 18.528C248.31 18.528 247.566 18.72 246.894 19.104C246.222 19.488 245.686 20.048 245.286 20.784C244.886 21.52 244.686 22.384 244.686 23.376C244.686 24.384 244.886 25.264 245.286 26.016C245.686 26.752 246.222 27.32 246.894 27.72C247.566 28.104 248.31 28.296 249.126 28.296C249.942 28.296 250.686 28.104 251.358 27.72C252.046 27.32 252.59 26.752 252.99 26.016C253.39 25.264 253.59 24.392 253.59 23.4Z" fill="white"/>
<defs>
<linearGradient id="paint0_linear_1_1526" x1="3" y1="22" x2="18.4375" y2="22" gradientUnits="userSpaceOnUse">
<stop stop-color="#7A87FB"/>
<stop offset="1" stop-color="#FFD49C"/>
</linearGradient>
<linearGradient id="paint1_linear_1_1526" x1="19.7744" y1="15.7805" x2="29.603" y2="15.7805" gradientUnits="userSpaceOnUse">
<stop stop-color="#7A87FB"/>
<stop offset="1" stop-color="#FFD49C"/>
</linearGradient>
<linearGradient id="paint2_linear_1_1526" x1="19.7744" y1="31.5378" x2="42.0002" y2="31.5378" gradientUnits="userSpaceOnUse">
<stop stop-color="#7A87FB"/>
<stop offset="1" stop-color="#FFD49C"/>
</linearGradient>
</defs>
</svg>
